<svg width="230" height="72" viewBox="0 0 230 72" fill="none" xmlns="http://www.w3.org/2000/svg">
<path d="M29.3823 24.176C28.8276 23.28 28.0383 22.5973 27.0143 22.128C25.9903 21.616 24.7529 21.36 23.3023 21.36C20.5716 21.36 18.4596 22.256 16.9663 24.048C15.4729 25.7973 14.7263 28.208 14.7263 31.28C14.7263 34.8213 15.5583 37.4667 17.2222 39.216C18.8863 40.9653 21.4463 41.84 24.9023 41.84C28.1876 41.84 30.8329 40.5173 32.8383 37.872H21.5103V27.824H44.6143V42.032C42.6516 45.4027 39.9423 48.304 36.4863 50.736C33.0303 53.1253 28.6569 54.32 23.3663 54.32C18.6729 54.32 14.5769 53.36 11.0783 51.44C7.62225 49.4773 4.95558 46.7467 3.07825 43.248C1.24358 39.7493 0.32625 35.76 0.32625 31.28C0.32625 26.8 1.24358 22.8107 3.07825 19.312C4.95558 15.8133 7.62225 13.104 11.0783 11.184C14.5343 9.22133 18.5876 8.24 23.2383 8.24C29.1689 8.24 33.9903 9.66933 37.7023 12.528C41.4569 15.3867 43.6756 19.2693 44.3583 24.176H29.3823ZM56.8993 15.024C54.4246 15.024 52.4406 14.3627 50.9473 13.04C49.4539 11.7173 48.7073 10.0533 48.7073 8.048C48.7073 6 49.4539 4.31466 50.9473 2.992C52.4406 1.62666 54.4246 0.943996 56.8993 0.943996C59.3313 0.943996 61.2939 1.62666 62.7873 2.992C64.2806 4.31466 65.0273 6 65.0273 8.048C65.0273 10.0533 64.2806 11.7173 62.7873 13.04C61.2939 14.3627 59.3313 15.024 56.8993 15.024ZM63.9393 17.904V54H49.7313V17.904H63.9393ZM83.3483 17.456C85.6949 17.456 87.7216 17.9467 89.4283 18.928C91.1349 19.8667 92.4363 21.168 93.3323 22.832V17.904H107.476V53.36C107.476 56.7307 106.858 59.8027 105.62 62.576C104.383 65.3493 102.378 67.568 99.6043 69.232C96.8736 70.896 93.3536 71.728 89.0443 71.728C83.2416 71.728 78.6336 70.3627 75.2203 67.632C71.8496 64.944 69.9296 61.2747 69.4603 56.624H83.4123C83.7963 58.5013 85.3323 59.44 88.0203 59.44C89.6843 59.44 90.9856 59.0133 91.9243 58.16C92.8629 57.3067 93.3323 55.7067 93.3323 53.36V49.072C92.4363 50.736 91.1349 52.0587 89.4283 53.04C87.7216 53.9787 85.6949 54.448 83.3483 54.448C80.5323 54.448 77.9936 53.7227 75.7323 52.272C73.4709 50.7787 71.6789 48.6453 70.3563 45.872C69.0763 43.056 68.4363 39.7493 68.4363 35.952C68.4363 32.1547 69.0763 28.8693 70.3563 26.096C71.6789 23.28 73.4709 21.1467 75.7323 19.696C77.9936 18.2027 80.5323 17.456 83.3483 17.456ZM93.3323 35.952C93.3323 34.032 92.8416 32.5387 91.8603 31.472C90.8789 30.4053 89.6203 29.872 88.0843 29.872C86.5483 29.872 85.2896 30.4053 84.3083 31.472C83.3269 32.5387 82.8363 34.032 82.8363 35.952C82.8363 37.872 83.3269 39.3653 84.3083 40.432C85.2896 41.4987 86.5483 42.032 88.0843 42.032C89.6203 42.032 90.8789 41.4987 91.8603 40.432C92.8416 39.3653 93.3323 37.872 93.3323 35.952ZM168.64 17.904L160.064 54H144.064L139.712 33.648L135.104 54H119.104L110.592 17.904H124.672L127.68 39.856L132.352 17.904H147.52L152.448 40.112L155.52 17.904H168.64ZM178.837 15.024C176.362 15.024 174.378 14.3627 172.885 13.04C171.391 11.7173 170.645 10.0533 170.645 8.048C170.645 6 171.391 4.31466 172.885 2.992C174.378 1.62666 176.362 0.943996 178.837 0.943996C181.269 0.943996 183.231 1.62666 184.725 2.992C186.218 4.31466 186.965 6 186.965 8.048C186.965 10.0533 186.218 11.7173 184.725 13.04C183.231 14.3627 181.269 15.024 178.837 15.024ZM185.877 17.904V54H171.669V17.904H185.877ZM205.286 17.456C207.632 17.456 209.659 17.9467 211.366 18.928C213.072 19.8667 214.374 21.168 215.27 22.832V17.904H229.414V53.36C229.414 56.7307 228.795 59.8027 227.558 62.576C226.32 65.3493 224.315 67.568 221.542 69.232C218.811 70.896 215.291 71.728 210.982 71.728C205.179 71.728 200.571 70.3627 197.158 67.632C193.787 64.944 191.867 61.2747 191.398 56.624H205.35C205.734 58.5013 207.27 59.44 209.958 59.44C211.622 59.44 212.923 59.0133 213.862 58.16C214.8 57.3067 215.27 55.7067 215.27 53.36V49.072C214.374 50.736 213.072 52.0587 211.366 53.04C209.659 53.9787 207.632 54.448 205.286 54.448C202.47 54.448 199.931 53.7227 197.67 52.272C195.408 50.7787 193.616 48.6453 192.294 45.872C191.014 43.056 190.374 39.7493 190.374 35.952C190.374 32.1547 191.014 28.8693 192.294 26.096C193.616 23.28 195.408 21.1467 197.67 19.696C199.931 18.2027 202.47 17.456 205.286 17.456ZM215.27 35.952C215.27 34.032 214.779 32.5387 213.798 31.472C212.816 30.4053 211.558 29.872 210.022 29.872C208.486 29.872 207.227 30.4053 206.246 31.472C205.264 32.5387 204.774 34.032 204.774 35.952C204.774 37.872 205.264 39.3653 206.246 40.432C207.227 41.4987 208.486 42.032 210.022 42.032C211.558 42.032 212.816 41.4987 213.798 40.432C214.779 39.3653 215.27 37.872 215.27 35.952Z" fill="black"/>
</svg>
