<svg width="219" height="219" viewBox="0 0 219 219" fill="none" xmlns="http://www.w3.org/2000/svg">
<rect width="219" height="219" fill="#FFC30F"/>
<path d="M44.9117 106.632C44.4957 105.96 43.9037 105.448 43.1357 105.096C42.3677 104.712 41.4397 104.52 40.3517 104.52C38.3037 104.52 36.7197 105.192 35.5997 106.536C34.4797 107.848 33.9197 109.656 33.9197 111.96C33.9197 114.616 34.5437 116.6 35.7917 117.912C37.0397 119.224 38.9597 119.88 41.5517 119.88C44.0157 119.88 45.9997 118.888 47.5037 116.904H39.0077V109.368H56.3357V120.024C54.8637 122.552 52.8317 124.728 50.2397 126.552C47.6477 128.344 44.3677 129.24 40.3997 129.24C36.8797 129.24 33.8077 128.52 31.1837 127.08C28.5917 125.608 26.5917 123.56 25.1837 120.936C23.8077 118.312 23.1197 115.32 23.1197 111.96C23.1197 108.6 23.8077 105.608 25.1837 102.984C26.5917 100.36 28.5917 98.328 31.1837 96.888C33.7757 95.416 36.8157 94.68 40.3037 94.68C44.7517 94.68 48.3677 95.752 51.1517 97.896C53.9677 100.04 55.6317 102.952 56.1437 106.632H44.9117ZM65.5494 99.768C63.6934 99.768 62.2054 99.272 61.0854 98.28C59.9654 97.288 59.4054 96.04 59.4054 94.536C59.4054 93 59.9654 91.736 61.0854 90.744C62.2054 89.72 63.6934 89.208 65.5494 89.208C67.3734 89.208 68.8454 89.72 69.9654 90.744C71.0854 91.736 71.6454 93 71.6454 94.536C71.6454 96.04 71.0854 97.288 69.9654 98.28C68.8454 99.272 67.3734 99.768 65.5494 99.768ZM70.8294 101.928V129H60.1734V101.928H70.8294ZM85.3862 101.592C87.1462 101.592 88.6662 101.96 89.9462 102.696C91.2262 103.4 92.2022 104.376 92.8742 105.624V101.928H103.482V128.52C103.482 131.048 103.018 133.352 102.09 135.432C101.162 137.512 99.6582 139.176 97.5782 140.424C95.5302 141.672 92.8902 142.296 89.6582 142.296C85.3062 142.296 81.8502 141.272 79.2902 139.224C76.7622 137.208 75.3222 134.456 74.9702 130.968H85.4342C85.7222 132.376 86.8742 133.08 88.8902 133.08C90.1382 133.08 91.1142 132.76 91.8182 132.12C92.5222 131.48 92.8742 130.28 92.8742 128.52V125.304C92.2022 126.552 91.2262 127.544 89.9462 128.28C88.6662 128.984 87.1462 129.336 85.3862 129.336C83.2742 129.336 81.3702 128.792 79.6742 127.704C77.9782 126.584 76.6342 124.984 75.6422 122.904C74.6822 120.792 74.2022 118.312 74.2022 115.464C74.2022 112.616 74.6822 110.152 75.6422 108.072C76.6342 105.96 77.9782 104.36 79.6742 103.272C81.3702 102.152 83.2742 101.592 85.3862 101.592ZM92.8742 115.464C92.8742 114.024 92.5062 112.904 91.7702 112.104C91.0342 111.304 90.0902 110.904 88.9382 110.904C87.7862 110.904 86.8422 111.304 86.1062 112.104C85.3702 112.904 85.0022 114.024 85.0022 115.464C85.0022 116.904 85.3702 118.024 86.1062 118.824C86.8422 119.624 87.7862 120.024 88.9382 120.024C90.0902 120.024 91.0342 119.624 91.7702 118.824C92.5062 118.024 92.8742 116.904 92.8742 115.464ZM149.355 101.928L142.923 129H130.923L127.659 113.736L124.203 129H112.203L105.819 101.928H116.379L118.635 118.392L122.139 101.928H133.515L137.211 118.584L139.515 101.928H149.355ZM157.003 99.768C155.147 99.768 153.659 99.272 152.539 98.28C151.419 97.288 150.859 96.04 150.859 94.536C150.859 93 151.419 91.736 152.539 90.744C153.659 89.72 155.147 89.208 157.003 89.208C158.827 89.208 160.299 89.72 161.419 90.744C162.539 91.736 163.099 93 163.099 94.536C163.099 96.04 162.539 97.288 161.419 98.28C160.299 99.272 158.827 99.768 157.003 99.768ZM162.283 101.928V129H151.627V101.928H162.283ZM176.839 101.592C178.599 101.592 180.119 101.96 181.399 102.696C182.679 103.4 183.655 104.376 184.327 105.624V101.928H194.935V128.52C194.935 131.048 194.471 133.352 193.543 135.432C192.615 137.512 191.111 139.176 189.031 140.424C186.983 141.672 184.343 142.296 181.111 142.296C176.759 142.296 173.303 141.272 170.743 139.224C168.215 137.208 166.775 134.456 166.423 130.968H176.887C177.175 132.376 178.327 133.08 180.343 133.08C181.591 133.08 182.567 132.76 183.271 132.12C183.975 131.48 184.327 130.28 184.327 128.52V125.304C183.655 126.552 182.679 127.544 181.399 128.28C180.119 128.984 178.599 129.336 176.839 129.336C174.727 129.336 172.823 128.792 171.127 127.704C169.431 126.584 168.087 124.984 167.095 122.904C166.135 120.792 165.655 118.312 165.655 115.464C165.655 112.616 166.135 110.152 167.095 108.072C168.087 105.96 169.431 104.36 171.127 103.272C172.823 102.152 174.727 101.592 176.839 101.592ZM184.327 115.464C184.327 114.024 183.959 112.904 183.223 112.104C182.487 111.304 181.543 110.904 180.391 110.904C179.239 110.904 178.295 111.304 177.559 112.104C176.823 112.904 176.455 114.024 176.455 115.464C176.455 116.904 176.823 118.024 177.559 118.824C178.295 119.624 179.239 120.024 180.391 120.024C181.543 120.024 182.487 119.624 183.223 118.824C183.959 118.024 184.327 116.904 184.327 115.464Z" fill="#F44F01"/>
</svg>
